<svg version="1.2" xmlns="http://www.w3.org/2000/svg" viewBox="0 0 800 800" width="20" height="20">
	<title>facebook</title>
	<style>
		.s0 { fill: #000000 } 
	</style>
	<g id="7935ec95c421cee6d86eb22ecd11b7e3">
		<path class="s0" d="m442.4 190.9c0 8.2 0 34.9 0 72.8h130.3l-14.1 116.2h-116.2c0 179.2 0 419.3 0 419.3h-154.3c0 0 0-236.9 0-419.3h-80.4v-116.2h80.4c0-46.1 0-78.9 0-88 0-43.5-3.3-64.1 15.2-97.8 18.5-33.7 70.6-78.2 160.8-77.1 90.2 1.1 128.2 9.8 128.2 9.8l-19.6 123.8c0 0-57.6-15.2-85.8-9.8-28.2 5.5-44.5 22.8-44.5 66.3z"/>
	</g>
</svg>