<svg version="1.2" xmlns="http://www.w3.org/2000/svg" viewBox="0 0 800 800" width="20" height="20">
	<title>instagram</title>
	<style>
		.s0 { fill: #000000 } 
	</style>
	<path fill-rule="evenodd" class="s0" d="m66.7 200c0-73.6 59.7-133.3 133.3-133.3h400c73.6 0 133.3 59.7 133.3 133.3v400c0 73.6-59.7 133.3-133.3 133.3h-400c-73.6 0-133.3-59.7-133.3-133.3zm133.3-66.7c-36.8 0-66.7 29.9-66.7 66.7v400c0 36.8 29.9 66.7 66.7 66.7h400c36.8 0 66.7-29.9 66.7-66.7v-400c0-36.8-29.9-66.7-66.7-66.7zm33.3 266.7c0-92 74.7-166.7 166.7-166.7 92 0 166.7 74.7 166.7 166.7 0 92-74.7 166.7-166.7 166.7-92 0-166.7-74.7-166.7-166.7zm166.7-100c-55.2 0-100 44.8-100 100 0 55.2 44.8 100 100 100 55.2 0 100-44.8 100-100 0-55.2-44.8-100-100-100zm133.3-83.3c0-27.6 22.4-50 50-50 27.6 0 50 22.4 50 50 0 27.6-22.4 50-50 50-27.6 0-50-22.4-50-50z"/>
</svg>