<svg version="1.2" xmlns="http://www.w3.org/2000/svg" viewBox="0 0 800 800" width="20" height="20">
	<title>youtube</title>
	<style>
		.s0 { fill: #000000 } 
	</style>
	<g id="Page-1">
		<g id="Dribbble-Light-Preview">
			<g id="icons">
				<path id="youtube-[#168]" fill-rule="evenodd" class="s0" d="m755.8 641c-15 14.7-34 24.7-55.6 28.4-233.5 17.6-544.5 10.6-604.8-1.9-21.6-4.3-40.3-14-54.1-28.1-10.6-10.6-19-26.9-25.6-49.4-15.5-51.9-35.7-372.8 28.8-432.7 15.3-14 33.1-23.1 53.1-26.8 73.2-14 530.6-14 603.9 0 25 4.6 48.4 18.7 62.1 36.8 47.8 75.2 51.8 414.1-7.8 473.7zm-221.9-249.3c-73-39-134.7-75.2-214.4-112.7v224.4c79.7-40.8 154.2-78.3 214.4-111.7z"/>
			</g>
		</g>
	</g>
</svg>